<svg width="58" height="58" viewBox="0 0 58 58" fill="none" xmlns="http://www.w3.org/2000/svg">
<path d="M7.24998 50.75C6.56526 50.75 5.9913 50.5184 5.5281 50.0552C5.06491 49.592 4.83331 49.0181 4.83331 48.3333C4.83331 47.6486 5.06491 47.0746 5.5281 46.6115C5.9913 46.1483 6.56526 45.9167 7.24998 45.9167H50.75C51.4347 45.9167 52.0087 46.1483 52.4719 46.6115C52.935 47.0746 53.1666 47.6486 53.1666 48.3333C53.1666 49.0181 52.935 49.592 52.4719 50.0552C52.0087 50.5184 51.4347 50.75 50.75 50.75H7.24998ZM10.875 43.5C9.86804 43.5 9.01213 43.1476 8.30727 42.4427C7.60241 41.7378 7.24998 40.8819 7.24998 39.875V30.2083C7.24998 29.2014 7.60241 28.3455 8.30727 27.6406C9.01213 26.9358 9.86804 26.5833 10.875 26.5833C11.8819 26.5833 12.7378 26.9358 13.4427 27.6406C14.1475 28.3455 14.5 29.2014 14.5 30.2083V39.875C14.5 40.8819 14.1475 41.7378 13.4427 42.4427C12.7378 43.1476 11.8819 43.5 10.875 43.5ZM22.9583 43.5C21.9514 43.5 21.0955 43.1476 20.3906 42.4427C19.6857 41.7378 19.3333 40.8819 19.3333 39.875V18.125C19.3333 17.1181 19.6857 16.2622 20.3906 15.5573C21.0955 14.8524 21.9514 14.5 22.9583 14.5C23.9653 14.5 24.8212 14.8524 25.526 15.5573C26.2309 16.2622 26.5833 17.1181 26.5833 18.125V39.875C26.5833 40.8819 26.2309 41.7378 25.526 42.4427C24.8212 43.1476 23.9653 43.5 22.9583 43.5ZM35.0416 43.5C34.0347 43.5 33.1788 43.1476 32.4739 42.4427C31.7691 41.7378 31.4166 40.8819 31.4166 39.875V25.375C31.4166 24.3681 31.7691 23.5122 32.4739 22.8073C33.1788 22.1024 34.0347 21.75 35.0416 21.75C36.0486 21.75 36.9045 22.1024 37.6094 22.8073C38.3142 23.5122 38.6666 24.3681 38.6666 25.375V39.875C38.6666 40.8819 38.3142 41.7378 37.6094 42.4427C36.9045 43.1476 36.0486 43.5 35.0416 43.5ZM47.125 43.5C46.118 43.5 45.2621 43.1476 44.5573 42.4427C43.8524 41.7378 43.5 40.8819 43.5 39.875V10.875C43.5 9.86806 43.8524 9.01215 44.5573 8.30729C45.2621 7.60243 46.118 7.25 47.125 7.25C48.1319 7.25 48.9878 7.60243 49.6927 8.30729C50.3975 9.01215 50.75 9.86806 50.75 10.875V39.875C50.75 40.8819 50.3975 41.7378 49.6927 42.4427C48.9878 43.1476 48.1319 43.5 47.125 43.5Z" fill="#033766"/>
</svg>
