<svg width="50" height="50" viewBox="0 0 50 50" fill="none" xmlns="http://www.w3.org/2000/svg">
<path d="M12.5 45.8333C10.7639 45.8333 9.28819 45.2257 8.07292 44.0104C6.85764 42.7951 6.25 41.3194 6.25 39.5833V37.5C6.25 36.3541 6.65799 35.3732 7.47396 34.5573C8.28993 33.7413 9.27083 33.3333 10.4167 33.3333H12.5V8.33329C12.5 7.18746 12.908 6.20656 13.724 5.39058C14.5399 4.57461 15.5208 4.16663 16.6667 4.16663H39.5833C40.7292 4.16663 41.7101 4.57461 42.526 5.39058C43.342 6.20656 43.75 7.18746 43.75 8.33329V39.5833C43.75 41.3194 43.1424 42.7951 41.9271 44.0104C40.7118 45.2257 39.2361 45.8333 37.5 45.8333H12.5ZM37.5 41.6666C38.0903 41.6666 38.5851 41.467 38.9844 41.0677C39.3837 40.6684 39.5833 40.1736 39.5833 39.5833V8.33329H16.6667V33.3333H31.25C32.3958 33.3333 33.3767 33.7413 34.1927 34.5573C35.0087 35.3732 35.4167 36.3541 35.4167 37.5V39.5833C35.4167 40.1736 35.6163 40.6684 36.0156 41.0677C36.4149 41.467 36.9097 41.6666 37.5 41.6666ZM20.8333 18.75C20.2431 18.75 19.7483 18.5503 19.349 18.151C18.9497 17.7517 18.75 17.2569 18.75 16.6666C18.75 16.0763 18.9497 15.5816 19.349 15.1823C19.7483 14.7829 20.2431 14.5833 20.8333 14.5833H35.4167C36.0069 14.5833 36.5017 14.7829 36.901 15.1823C37.3003 15.5816 37.5 16.0763 37.5 16.6666C37.5 17.2569 37.3003 17.7517 36.901 18.151C36.5017 18.5503 36.0069 18.75 35.4167 18.75H20.8333ZM20.8333 25C20.2431 25 19.7483 24.8003 19.349 24.401C18.9497 24.0017 18.75 23.5069 18.75 22.9166C18.75 22.3263 18.9497 21.8316 19.349 21.4323C19.7483 21.0329 20.2431 20.8333 20.8333 20.8333H35.4167C36.0069 20.8333 36.5017 21.0329 36.901 21.4323C37.3003 21.8316 37.5 22.3263 37.5 22.9166C37.5 23.5069 37.3003 24.0017 36.901 24.401C36.5017 24.8003 36.0069 25 35.4167 25H20.8333ZM12.5 41.6666H31.25V37.5H10.4167V39.5833C10.4167 40.1736 10.6163 40.6684 11.0156 41.0677C11.4149 41.467 11.9097 41.6666 12.5 41.6666ZM12.5 41.6666H10.4167H31.25H12.5Z" fill="#033766"/>
</svg>
