<svg width="50" height="50" viewBox="0 0 50 50" fill="none" xmlns="http://www.w3.org/2000/svg">
<path d="M34.5527 5.75C36.0621 5.75024 37.2987 6.94752 37.2988 8.43457V10.6201H39.5459C41.0511 10.6201 42.2933 11.8132 42.25 13.3047V42.5654C42.2498 44.0526 41.0125 45.25 39.5029 45.25H14.4912C12.9816 45.25 11.7443 44.0526 11.7441 42.5654V40.3799H9.49707C7.98735 40.3799 6.75 39.1827 6.75 37.6953V8.43457C6.75017 6.94737 7.98746 5.75 9.49707 5.75H34.5527ZM37.2988 37.7373C37.2988 39.2245 36.0622 40.4216 34.5527 40.4219H14.7842V42.3574H39.2959V13.5547H37.2988V37.7373ZM9.74707 37.4453H34.2588V8.68457H9.74707V37.4453Z" fill="#033766" stroke="#033766" stroke-width="0.5"/>
<path d="M32.3052 14.5225C32.305 15.3379 31.6278 15.9891 30.8071 15.9893H18.2788C17.4582 15.989 16.7809 15.3378 16.7808 14.5225C16.7808 13.7069 17.4581 13.0549 18.2788 13.0547H30.7642C31.5881 13.0549 32.2538 13.7063 32.3052 14.5059V14.5225Z" fill="#033766" stroke="#033766" stroke-width="0.5"/>
<path d="M30.7634 20.4012C31.5843 20.4012 32.2625 21.0534 32.2625 21.869C32.2623 22.6845 31.5842 23.3358 30.7634 23.3358H13.2419C12.4213 23.3356 11.7441 22.6844 11.7439 21.869C11.7439 21.0535 12.4212 20.4015 13.2419 20.4012H30.7634Z" fill="#033766" stroke="#033766" stroke-width="0.5"/>
<path d="M30.7634 25.271C31.5843 25.271 32.2625 25.9231 32.2625 26.7388C32.2623 27.5543 31.5842 28.2056 30.7634 28.2056H13.2419C12.4213 28.2053 11.7441 27.5541 11.7439 26.7388C11.7439 25.9233 12.4212 25.2712 13.2419 25.271H30.7634Z" fill="#033766" stroke="#033766" stroke-width="0.5"/>
<path d="M30.7634 30.1407C31.5843 30.1407 32.2625 30.7929 32.2625 31.6085C32.2623 32.424 31.5842 33.0753 30.7634 33.0753H13.2419C12.4213 33.0751 11.7441 32.4239 11.7439 31.6085C11.7439 30.793 12.4212 30.141 13.2419 30.1407H30.7634Z" fill="#033766" stroke="#033766" stroke-width="0.5"/>
</svg>
