<svg width="208" height="357" viewBox="0 0 208 357" fill="none" xmlns="http://www.w3.org/2000/svg">
<g clip-path="url(#clip0_24_1445)">
<path d="M553.087 88.8543C524.648 93.9061 498.396 104.042 474.394 120.828C442.955 142.842 418.873 170.275 403.121 203.495C392.987 224.822 386.285 248.562 383.3 274.716C359.968 253.422 343.275 229.522 334.993 203.495C331.115 191.265 329.088 178.588 329.088 165.495C329.088 99.8212 381.625 41.4536 462.983 4.57217C470.276 1.26292 476.74 -2.31811 461.786 1.96633C392.269 21.9817 230.446 62.1085 121.319 112.451C53.7495 143.625 19.0868 170.291 2.55342 180.298C-1.13308 182.537 -0.829864 183.816 3.47903 184.135C18.0335 185.878 53.6218 190.898 100.573 203.495C124.24 209.858 150.795 218.123 179.011 228.85C279.057 266.947 441.327 351.549 510.062 356.808C532.085 358.487 518.456 348.927 518.456 348.927C471.441 332.908 430.427 312.125 398.828 287.649C404.286 257.131 413.319 228.467 427.73 203.495C440.034 182.169 456.28 163.512 477.538 148.629C502.912 130.883 524.233 119.277 549.943 112.451C572.094 106.584 594.005 110.356 592.968 97.7909C590.351 84.1542 560.157 87.6233 553.087 88.8703V88.8543ZM370.214 297.849C336.285 279.944 247.57 233.646 203.157 215.23C192.895 210.961 181.819 207.044 170.632 203.495C133.129 191.601 94.3489 183.864 80.8636 181.657C76.5388 180.954 75.9962 179.211 79.555 176.749C96.4076 164.999 150.221 128.997 212.604 103.003C269.577 79.2942 342.382 51.2215 374.714 38.8637C385.247 34.8511 382.056 38.9437 377.491 42.3489C330.588 77.184 294.058 123.641 294.058 169.795C294.058 181.29 295.702 192.544 298.91 203.495C309.028 238.33 334.626 270.176 371.459 296.65C375.465 299.528 378.784 302.373 370.23 297.865L370.214 297.849Z" fill="black" fill-opacity="0.05"/>
</g>
<defs>
<clipPath id="clip0_24_1445">
<rect width="593" height="357" fill="white"/>
</clipPath>
</defs>
</svg>
